<?xml version="1.0" encoding="UTF-8" standalone="no"?>
<!DOCTYPE svg PUBLIC "-//W3C//DTD SVG 1.1//EN"
 "http://www.w3.org/Graphics/SVG/1.1/DTD/svg11.dtd">
<!-- Generated by graphviz version 7.1.0 (20230121.1956)
 -->
<!-- Title: Daytrip Pages: 1 -->
<svg width="2314pt" height="2154pt"
 viewBox="0.00 0.00 2314.00 2154.00" xmlns="http://www.w3.org/2000/svg" xmlns:xlink="http://www.w3.org/1999/xlink">
<g id="graph0" class="graph" transform="scale(1 1) rotate(0) translate(144 2010)">
<title>Daytrip</title>
<text text-anchor="middle" x="1013" y="-27" font-family="Sans-Serif" font-size="75.00" fill="#2d3436">Daytrip</text>
<g id="clust1" class="cluster">
<title>cluster_Nginx</title>
<path fill="#e5f5fd" stroke="#aeb6be" stroke-width="0" d="M20,-99C20,-99 2006,-99 2006,-99 2012,-99 2018,-105 2018,-111 2018,-111 2018,-1846 2018,-1846 2018,-1852 2012,-1858 2006,-1858 2006,-1858 20,-1858 20,-1858 14,-1858 8,-1852 8,-1846 8,-1846 8,-111 8,-111 8,-105 14,-99 20,-99"/>
<text text-anchor="middle" x="135" y="-1794" font-family="Helvetica,sans-Serif" font-size="75.00">Daytrip</text>
</g>
<g id="clust2" class="cluster">
<title>cluster_Presentation Layer</title>
<path fill="#ebf3e7" stroke="#aeb6be" stroke-width="0" d="M1591,-1438C1591,-1438 1789,-1438 1789,-1438 1795,-1438 1801,-1444 1801,-1450 1801,-1450 1801,-1725 1801,-1725 1801,-1731 1795,-1737 1789,-1737 1789,-1737 1591,-1737 1591,-1737 1585,-1737 1579,-1731 1579,-1725 1579,-1725 1579,-1450 1579,-1450 1579,-1444 1585,-1438 1591,-1438"/>
<text text-anchor="middle" x="1637.5" y="-1723.4" font-family="Sans-Serif" font-size="12.00">Presentation Layer</text>
</g>
<g id="clust3" class="cluster">
<title>cluster_Static files</title>
<path fill="#ece8f6" stroke="#aeb6be" stroke-width="0" d="M1621,-1468C1621,-1468 1759,-1468 1759,-1468 1765,-1468 1771,-1474 1771,-1480 1771,-1480 1771,-1674 1771,-1674 1771,-1680 1765,-1686 1759,-1686 1759,-1686 1621,-1686 1621,-1686 1615,-1686 1609,-1680 1609,-1674 1609,-1674 1609,-1480 1609,-1480 1609,-1474 1615,-1468 1621,-1468"/>
<text text-anchor="middle" x="1644.5" y="-1672.4" font-family="Sans-Serif" font-size="12.00">Static files</text>
</g>
<g id="clust4" class="cluster">
<title>cluster_Process Centric Layer</title>
<path fill="#ebf3e7" stroke="#aeb6be" stroke-width="0" d="M1207,-1131C1207,-1131 1789,-1131 1789,-1131 1795,-1131 1801,-1137 1801,-1143 1801,-1143 1801,-1418 1801,-1418 1801,-1424 1795,-1430 1789,-1430 1789,-1430 1207,-1430 1207,-1430 1201,-1430 1195,-1424 1195,-1418 1195,-1418 1195,-1143 1195,-1143 1195,-1137 1201,-1131 1207,-1131"/>
<text text-anchor="middle" x="1262" y="-1416.4" font-family="Sans-Serif" font-size="12.00">Process Centric Layer</text>
</g>
<g id="clust5" class="cluster">
<title>cluster_User Login Service</title>
<path fill="#ece8f6" stroke="#aeb6be" stroke-width="0" d="M1621,-1161C1621,-1161 1759,-1161 1759,-1161 1765,-1161 1771,-1167 1771,-1173 1771,-1173 1771,-1367 1771,-1367 1771,-1373 1765,-1379 1759,-1379 1759,-1379 1621,-1379 1621,-1379 1615,-1379 1609,-1373 1609,-1367 1609,-1367 1609,-1173 1609,-1173 1609,-1167 1615,-1161 1621,-1161"/>
<text text-anchor="middle" x="1668.5" y="-1365.4" font-family="Sans-Serif" font-size="12.00">User Login Service</text>
</g>
<g id="clust6" class="cluster">
<title>cluster_Best Destinations Service</title>
<path fill="#ece8f6" stroke="#aeb6be" stroke-width="0" d="M1237,-1161C1237,-1161 1375,-1161 1375,-1161 1381,-1161 1387,-1167 1387,-1173 1387,-1173 1387,-1367 1387,-1367 1387,-1373 1381,-1379 1375,-1379 1375,-1379 1237,-1379 1237,-1379 1231,-1379 1225,-1373 1225,-1367 1225,-1367 1225,-1173 1225,-1173 1225,-1167 1231,-1161 1237,-1161"/>
<text text-anchor="middle" x="1302" y="-1365.4" font-family="Sans-Serif" font-size="12.00">Best Destinations Service</text>
</g>
<g id="clust7" class="cluster">
<title>cluster_User Registration Service</title>
<path fill="#ece8f6" stroke="#aeb6be" stroke-width="0" d="M1429,-1161C1429,-1161 1567,-1161 1567,-1161 1573,-1161 1579,-1167 1579,-1173 1579,-1173 1579,-1367 1579,-1367 1579,-1373 1573,-1379 1567,-1379 1567,-1379 1429,-1379 1429,-1379 1423,-1379 1417,-1373 1417,-1367 1417,-1367 1417,-1173 1417,-1173 1417,-1167 1423,-1161 1429,-1161"/>
<text text-anchor="middle" x="1493.5" y="-1365.4" font-family="Sans-Serif" font-size="12.00">User Registration Service</text>
</g>
<g id="clust8" class="cluster">
<title>cluster_Business Logic Layer</title>
<path fill="#ebf3e7" stroke="#aeb6be" stroke-width="0" d="M412,-743C412,-743 1610,-743 1610,-743 1616,-743 1622,-749 1622,-755 1622,-755 1622,-1111 1622,-1111 1622,-1117 1616,-1123 1610,-1123 1610,-1123 412,-1123 412,-1123 406,-1123 400,-1117 400,-1111 400,-1111 400,-755 400,-755 400,-749 406,-743 412,-743"/>
<text text-anchor="middle" x="465.5" y="-1109.4" font-family="Sans-Serif" font-size="12.00">Business Logic Layer</text>
</g>
<g id="clust9" class="cluster">
<title>cluster_Coordinates Rating Service</title>
<path fill="#ece8f6" stroke="#aeb6be" stroke-width="0" d="M838,-803C838,-803 978,-803 978,-803 984,-803 990,-809 990,-815 990,-815 990,-1009 990,-1009 990,-1015 984,-1021 978,-1021 978,-1021 838,-1021 838,-1021 832,-1021 826,-1015 826,-1009 826,-1009 826,-815 826,-815 826,-809 832,-803 838,-803"/>
<text text-anchor="middle" x="908" y="-1007.4" font-family="Sans-Serif" font-size="12.00">Coordinates Rating Service</text>
</g>
<g id="clust10" class="cluster">
<title>cluster_Coordinates Service</title>
<path fill="#ece8f6" stroke="#aeb6be" stroke-width="0" d="M1250,-803C1250,-803 1388,-803 1388,-803 1394,-803 1400,-809 1400,-815 1400,-815 1400,-1009 1400,-1009 1400,-1015 1394,-1021 1388,-1021 1388,-1021 1250,-1021 1250,-1021 1244,-1021 1238,-1015 1238,-1009 1238,-1009 1238,-815 1238,-815 1238,-809 1244,-803 1250,-803"/>
<text text-anchor="middle" x="1300.5" y="-1007.4" font-family="Sans-Serif" font-size="12.00">Coordinates Service</text>
</g>
<g id="clust11" class="cluster">
<title>cluster_Valid Email Service</title>
<path fill="#ece8f6" stroke="#aeb6be" stroke-width="0" d="M1442,-803C1442,-803 1580,-803 1580,-803 1586,-803 1592,-809 1592,-815 1592,-815 1592,-1009 1592,-1009 1592,-1015 1586,-1021 1580,-1021 1580,-1021 1442,-1021 1442,-1021 1436,-1021 1430,-1015 1430,-1009 1430,-1009 1430,-815 1430,-815 1430,-809 1436,-803 1442,-803"/>
<text text-anchor="middle" x="1490" y="-1007.4" font-family="Sans-Serif" font-size="12.00">Valid Email Service</text>
</g>
<g id="clust12" class="cluster">
<title>cluster_Reachable Destinations Service</title>
<path fill="#ece8f6" stroke="#aeb6be" stroke-width="0" d="M1032,-803C1032,-803 1196,-803 1196,-803 1202,-803 1208,-809 1208,-815 1208,-815 1208,-1009 1208,-1009 1208,-1015 1202,-1021 1196,-1021 1196,-1021 1032,-1021 1032,-1021 1026,-1021 1020,-1015 1020,-1009 1020,-1009 1020,-815 1020,-815 1020,-809 1026,-803 1032,-803"/>
<text text-anchor="middle" x="1114" y="-1007.4" font-family="Sans-Serif" font-size="12.00">Reachable Destinations Service</text>
</g>
<g id="clust13" class="cluster">
<title>cluster_AWS</title>
<path fill="#ece8f6" stroke="#aeb6be" stroke-width="0" d="M442,-773C442,-773 784,-773 784,-773 790,-773 796,-779 796,-785 796,-785 796,-1060 796,-1060 796,-1066 790,-1072 784,-1072 784,-1072 442,-1072 442,-1072 436,-1072 430,-1066 430,-1060 430,-1060 430,-785 430,-785 430,-779 436,-773 442,-773"/>
<text text-anchor="middle" x="452" y="-1058.4" font-family="Sans-Serif" font-size="12.00">AWS</text>
</g>
<g id="clust14" class="cluster">
<title>cluster_Boundary service</title>
<path fill="#fdf7e3" stroke="#aeb6be" stroke-width="0" d="M472,-803C472,-803 754,-803 754,-803 760,-803 766,-809 766,-815 766,-815 766,-1009 766,-1009 766,-1015 760,-1021 754,-1021 754,-1021 472,-1021 472,-1021 466,-1021 460,-1015 460,-1009 460,-1009 460,-815 460,-815 460,-809 466,-803 472,-803"/>
<text text-anchor="middle" x="515" y="-1007.4" font-family="Sans-Serif" font-size="12.00">Boundary service</text>
</g>
<g id="clust15" class="cluster">
<title>cluster_Adapter Layer</title>
<path fill="#ebf3e7" stroke="#aeb6be" stroke-width="0" d="M50,-436C50,-436 1784,-436 1784,-436 1790,-436 1796,-442 1796,-448 1796,-448 1796,-723 1796,-723 1796,-729 1790,-735 1784,-735 1784,-735 50,-735 50,-735 44,-735 38,-729 38,-723 38,-723 38,-448 38,-448 38,-442 44,-436 50,-436"/>
<text text-anchor="middle" x="84" y="-721.4" font-family="Sans-Serif" font-size="12.00">Adapter Layer</text>
</g>
<g id="clust16" class="cluster">
<title>cluster_Destination DB Adapter</title>
<path fill="#ece8f6" stroke="#aeb6be" stroke-width="0" d="M1232,-466C1232,-466 1370,-466 1370,-466 1376,-466 1382,-472 1382,-478 1382,-478 1382,-672 1382,-672 1382,-678 1376,-684 1370,-684 1370,-684 1232,-684 1232,-684 1226,-684 1220,-678 1220,-672 1220,-672 1220,-478 1220,-478 1220,-472 1226,-466 1232,-466"/>
<text text-anchor="middle" x="1291" y="-670.4" font-family="Sans-Serif" font-size="12.00">Destination DB Adapter</text>
</g>
<g id="clust17" class="cluster">
<title>cluster_Emailcheck API Adapter</title>
<path fill="#ece8f6" stroke="#aeb6be" stroke-width="0" d="M1616,-466C1616,-466 1754,-466 1754,-466 1760,-466 1766,-472 1766,-478 1766,-478 1766,-672 1766,-672 1766,-678 1760,-684 1754,-684 1754,-684 1616,-684 1616,-684 1610,-684 1604,-678 1604,-672 1604,-672 1604,-478 1604,-478 1604,-472 1610,-466 1616,-466"/>
<text text-anchor="middle" x="1676.5" y="-670.4" font-family="Sans-Serif" font-size="12.00">Emailcheck API Adapter</text>
</g>
<g id="clust18" class="cluster">
<title>cluster_Crowd API Adapter</title>
<path fill="#ece8f6" stroke="#aeb6be" stroke-width="0" d="M1040,-466C1040,-466 1178,-466 1178,-466 1184,-466 1190,-472 1190,-478 1190,-478 1190,-672 1190,-672 1190,-678 1184,-684 1178,-684 1178,-684 1040,-684 1040,-684 1034,-684 1028,-678 1028,-672 1028,-672 1028,-478 1028,-478 1028,-472 1034,-466 1040,-466"/>
<text text-anchor="middle" x="1087" y="-670.4" font-family="Sans-Serif" font-size="12.00">Crowd API Adapter</text>
</g>
<g id="clust19" class="cluster">
<title>cluster_Air Pollution API Adapter</title>
<path fill="#ece8f6" stroke="#aeb6be" stroke-width="0" d="M848,-466C848,-466 986,-466 986,-466 992,-466 998,-472 998,-478 998,-478 998,-672 998,-672 998,-678 992,-684 986,-684 986,-684 848,-684 848,-684 842,-684 836,-678 836,-672 836,-672 836,-478 836,-478 836,-472 842,-466 848,-466"/>
<text text-anchor="middle" x="910" y="-670.4" font-family="Sans-Serif" font-size="12.00">Air Pollution API Adapter</text>
</g>
<g id="clust20" class="cluster">
<title>cluster_Forecast API Adapter</title>
<path fill="#ece8f6" stroke="#aeb6be" stroke-width="0" d="M656,-466C656,-466 794,-466 794,-466 800,-466 806,-472 806,-478 806,-478 806,-672 806,-672 806,-678 800,-684 794,-684 794,-684 656,-684 656,-684 650,-684 644,-678 644,-672 644,-672 644,-478 644,-478 644,-472 650,-466 656,-466"/>
<text text-anchor="middle" x="708.5" y="-670.4" font-family="Sans-Serif" font-size="12.00">Forecast API Adapter</text>
</g>
<g id="clust21" class="cluster">
<title>cluster_Geocoding API Adapter</title>
<path fill="#ece8f6" stroke="#aeb6be" stroke-width="0" d="M1424,-466C1424,-466 1562,-466 1562,-466 1568,-466 1574,-472 1574,-478 1574,-478 1574,-672 1574,-672 1574,-678 1568,-684 1562,-684 1562,-684 1424,-684 1424,-684 1418,-684 1412,-678 1412,-672 1412,-672 1412,-478 1412,-478 1412,-472 1418,-466 1424,-466"/>
<text text-anchor="middle" x="1482.5" y="-670.4" font-family="Sans-Serif" font-size="12.00">Geocoding API Adapter</text>
</g>
<g id="clust22" class="cluster">
<title>cluster_IP API Adapter</title>
<path fill="#ece8f6" stroke="#aeb6be" stroke-width="0" d="M464,-466C464,-466 602,-466 602,-466 608,-466 614,-472 614,-478 614,-478 614,-672 614,-672 614,-678 608,-684 602,-684 602,-684 464,-684 464,-684 458,-684 452,-678 452,-672 452,-672 452,-478 452,-478 452,-472 458,-466 464,-466"/>
<text text-anchor="middle" x="499" y="-670.4" font-family="Sans-Serif" font-size="12.00">IP API Adapter</text>
</g>
<g id="clust23" class="cluster">
<title>cluster_Range API Adapter</title>
<path fill="#ece8f6" stroke="#aeb6be" stroke-width="0" d="M80,-466C80,-466 218,-466 218,-466 224,-466 230,-472 230,-478 230,-478 230,-672 230,-672 230,-678 224,-684 218,-684 218,-684 80,-684 80,-684 74,-684 68,-678 68,-672 68,-672 68,-478 68,-478 68,-472 74,-466 80,-466"/>
<text text-anchor="middle" x="127.5" y="-670.4" font-family="Sans-Serif" font-size="12.00">Range API Adapter</text>
</g>
<g id="clust24" class="cluster">
<title>cluster_User DB Adapter</title>
<path fill="#ece8f6" stroke="#aeb6be" stroke-width="0" d="M272,-466C272,-466 410,-466 410,-466 416,-466 422,-472 422,-478 422,-478 422,-672 422,-672 422,-678 416,-684 410,-684 410,-684 272,-684 272,-684 266,-684 260,-678 260,-672 260,-672 260,-478 260,-478 260,-472 266,-466 272,-466"/>
<text text-anchor="middle" x="313.5" y="-670.4" font-family="Sans-Serif" font-size="12.00">User DB Adapter</text>
</g>
<g id="clust25" class="cluster">
<title>cluster_Data Layer</title>
<polygon fill="#f0f0f0" stroke="#aeb6be" stroke-width="0" points="38,-129 38,-428 1988,-428 1988,-129 38,-129"/>
<text text-anchor="middle" x="75.5" y="-414.4" font-family="Sans-Serif" font-size="12.00">Data Layer</text>
</g>
<g id="clust26" class="cluster">
<title>cluster_Destination DB</title>
<path fill="#ece8f6" stroke="#aeb6be" stroke-width="0" d="M1040,-159C1040,-159 1178,-159 1178,-159 1184,-159 1190,-165 1190,-171 1190,-171 1190,-365 1190,-365 1190,-371 1184,-377 1178,-377 1178,-377 1040,-377 1040,-377 1034,-377 1028,-371 1028,-365 1028,-365 1028,-171 1028,-171 1028,-165 1034,-159 1040,-159"/>
<text text-anchor="middle" x="1077" y="-363.4" font-family="Sans-Serif" font-size="12.00">Destination DB</text>
</g>
<g id="clust27" class="cluster">
<title>cluster_User DB</title>
<path fill="#ece8f6" stroke="#aeb6be" stroke-width="0" d="M80,-159C80,-159 218,-159 218,-159 224,-159 230,-165 230,-171 230,-171 230,-365 230,-365 230,-371 224,-377 218,-377 218,-377 80,-377 80,-377 74,-377 68,-371 68,-365 68,-365 68,-171 68,-171 68,-165 74,-159 80,-159"/>
<text text-anchor="middle" x="99" y="-363.4" font-family="Sans-Serif" font-size="12.00">User DB</text>
</g>
<g id="clust28" class="cluster">
<title>cluster_TomTom API</title>
<path fill="#ece8f6" stroke="#aeb6be" stroke-width="0" d="M464,-159C464,-159 602,-159 602,-159 608,-159 614,-165 614,-171 614,-171 614,-365 614,-365 614,-371 608,-377 602,-377 602,-377 464,-377 464,-377 458,-377 452,-371 452,-365 452,-365 452,-171 452,-171 452,-165 458,-159 464,-159"/>
<text text-anchor="middle" x="493.5" y="-363.4" font-family="Sans-Serif" font-size="12.00">TomTom API</text>
</g>
<g id="clust29" class="cluster">
<title>cluster_Weather API</title>
<path fill="#ece8f6" stroke="#aeb6be" stroke-width="0" d="M656,-159C656,-159 794,-159 794,-159 800,-159 806,-165 806,-171 806,-171 806,-365 806,-365 806,-371 800,-377 794,-377 794,-377 656,-377 656,-377 650,-377 644,-371 644,-365 644,-365 644,-171 644,-171 644,-165 650,-159 656,-159"/>
<text text-anchor="middle" x="685.5" y="-363.4" font-family="Sans-Serif" font-size="12.00">Weather API</text>
</g>
<g id="clust30" class="cluster">
<title>cluster_OpenStreetMap API</title>
<path fill="#ece8f6" stroke="#aeb6be" stroke-width="0" d="M1232,-159C1232,-159 1370,-159 1370,-159 1376,-159 1382,-165 1382,-171 1382,-171 1382,-365 1382,-365 1382,-371 1376,-377 1370,-377 1370,-377 1232,-377 1232,-377 1226,-377 1220,-371 1220,-365 1220,-365 1220,-171 1220,-171 1220,-165 1226,-159 1232,-159"/>
<text text-anchor="middle" x="1281" y="-363.4" font-family="Sans-Serif" font-size="12.00">OpenStreetMap API</text>
</g>
<g id="clust31" class="cluster">
<title>cluster_EVA API</title>
<path fill="#ece8f6" stroke="#aeb6be" stroke-width="0" d="M1424,-159C1424,-159 1562,-159 1562,-159 1568,-159 1574,-165 1574,-171 1574,-171 1574,-365 1574,-365 1574,-371 1568,-377 1562,-377 1562,-377 1424,-377 1424,-377 1418,-377 1412,-371 1412,-365 1412,-365 1412,-171 1412,-171 1412,-165 1418,-159 1424,-159"/>
<text text-anchor="middle" x="1443" y="-363.4" font-family="Sans-Serif" font-size="12.00">EVA API</text>
</g>
<g id="clust32" class="cluster">
<title>cluster_IP API</title>
<path fill="#ece8f6" stroke="#aeb6be" stroke-width="0" d="M272,-159C272,-159 410,-159 410,-159 416,-159 422,-165 422,-171 422,-171 422,-365 422,-365 422,-371 416,-377 410,-377 410,-377 272,-377 272,-377 266,-377 260,-371 260,-365 260,-365 260,-171 260,-171 260,-165 266,-159 272,-159"/>
<text text-anchor="middle" x="285" y="-363.4" font-family="Sans-Serif" font-size="12.00">IP API</text>
</g>
<g id="clust33" class="cluster">
<title>cluster_ipify API</title>
<path fill="#ece8f6" stroke="#aeb6be" stroke-width="0" d="M1808,-159C1808,-159 1946,-159 1946,-159 1952,-159 1958,-165 1958,-171 1958,-171 1958,-365 1958,-365 1958,-371 1952,-377 1946,-377 1946,-377 1808,-377 1808,-377 1802,-377 1796,-371 1796,-365 1796,-365 1796,-171 1796,-171 1796,-165 1802,-159 1808,-159"/>
<text text-anchor="middle" x="1826" y="-363.4" font-family="Sans-Serif" font-size="12.00">ipify API</text>
</g>
<g id="clust34" class="cluster">
<title>cluster_OpenWeatherMap API</title>
<path fill="#ece8f6" stroke="#aeb6be" stroke-width="0" d="M848,-159C848,-159 986,-159 986,-159 992,-159 998,-165 998,-171 998,-171 998,-365 998,-365 998,-371 992,-377 986,-377 986,-377 848,-377 848,-377 842,-377 836,-371 836,-365 836,-365 836,-171 836,-171 836,-165 842,-159 848,-159"/>
<text text-anchor="middle" x="904" y="-363.4" font-family="Sans-Serif" font-size="12.00">OpenWeatherMap API</text>
</g>
<g id="clust35" class="cluster">
<title>cluster_Google Maps</title>
<path fill="#ece8f6" stroke="#aeb6be" stroke-width="0" d="M1616,-159C1616,-159 1754,-159 1754,-159 1760,-159 1766,-165 1766,-171 1766,-171 1766,-365 1766,-365 1766,-371 1760,-377 1754,-377 1754,-377 1616,-377 1616,-377 1610,-377 1604,-371 1604,-365 1604,-365 1604,-171 1604,-171 1604,-165 1610,-159 1616,-159"/>
<text text-anchor="middle" x="1648" y="-363.4" font-family="Sans-Serif" font-size="12.00">Google Maps</text>
</g>
<!-- a3f4bb8b05b1450cb26218d1d1cc3918 -->
<g id="node1" class="node">
<title>a3f4bb8b05b1450cb26218d1d1cc3918</title>
<image xlink:href="./chart/html_css_js.png" width="101px" height="39.3436px" preserveAspectRatio="xMinYMin meet" x="1639.5" y="-1586.17"/>
</g>
<!-- 980aa345325545c0808c9ca90f6592c3 -->
<g id="node2" class="node">
<title>980aa345325545c0808c9ca90f6592c3</title>
<image xlink:href="/Library/Frameworks/Python.framework/Versions/3.8/lib/python3.8/site-packages/resources/programming/framework/flask.png" width="101px" height="101px" preserveAspectRatio="xMinYMin meet" x="1447.5" y="-1310"/>
<text text-anchor="middle" x="1498" y="-1194.6" font-family="Sans-Serif" font-size="13.00" fill="#2d3436">Python + Flask</text>
</g>
<!-- a3f4bb8b05b1450cb26218d1d1cc3918&#45;&gt;980aa345325545c0808c9ca90f6592c3 -->
<g id="edge1" class="edge">
<title>a3f4bb8b05b1450cb26218d1d1cc3918&#45;&gt;980aa345325545c0808c9ca90f6592c3</title>
<path fill="none" stroke="darkgreen" d="M1628.04,-1566C1628.04,-1566 1498,-1566 1498,-1566 1498,-1566 1498,-1339.42 1498,-1339.42"/>
<polygon fill="darkgreen" stroke="darkgreen" points="1628.04,-1569.5 1638.04,-1566 1628.04,-1562.5 1628.04,-1569.5"/>
<polygon fill="darkgreen" stroke="darkgreen" points="1501.5,-1339.42 1498,-1329.42 1494.5,-1339.42 1501.5,-1339.42"/>
</g>
<!-- b1208d25c9c443dcbfe70863cd34d78c -->
<g id="node3" class="node">
<title>b1208d25c9c443dcbfe70863cd34d78c</title>
<image xlink:href="/Library/Frameworks/Python.framework/Versions/3.8/lib/python3.8/site-packages/resources/programming/language/nodejs.png" width="101px" height="101px" preserveAspectRatio="xMinYMin meet" x="1639.5" y="-1310"/>
<text text-anchor="middle" x="1690" y="-1194.6" font-family="Sans-Serif" font-size="13.00" fill="#2d3436">NodeJS + Express</text>
</g>
<!-- a3f4bb8b05b1450cb26218d1d1cc3918&#45;&gt;b1208d25c9c443dcbfe70863cd34d78c -->
<g id="edge2" class="edge">
<title>a3f4bb8b05b1450cb26218d1d1cc3918&#45;&gt;b1208d25c9c443dcbfe70863cd34d78c</title>
<path fill="none" stroke="darkgreen" d="M1690,-1486.85C1690,-1486.85 1690,-1339.49 1690,-1339.49"/>
<polygon fill="darkgreen" stroke="darkgreen" points="1693.5,-1339.49 1690,-1329.49 1686.5,-1339.49 1693.5,-1339.49"/>
<polygon fill="darkgreen" stroke="darkgreen" points="1686.5,-1486.85 1690,-1496.85 1693.5,-1486.85 1686.5,-1486.85"/>
</g>
<!-- 8ad69de9473248989bbcb92cb63431d1 -->
<g id="node4" class="node">
<title>8ad69de9473248989bbcb92cb63431d1</title>
<image xlink:href="/Library/Frameworks/Python.framework/Versions/3.8/lib/python3.8/site-packages/resources/programming/framework/flask.png" width="101px" height="101px" preserveAspectRatio="xMinYMin meet" x="1255.5" y="-1310"/>
<text text-anchor="middle" x="1306" y="-1194.6" font-family="Sans-Serif" font-size="13.00" fill="#2d3436">Python + Flask</text>
</g>
<!-- a3f4bb8b05b1450cb26218d1d1cc3918&#45;&gt;8ad69de9473248989bbcb92cb63431d1 -->
<g id="edge3" class="edge">
<title>a3f4bb8b05b1450cb26218d1d1cc3918&#45;&gt;8ad69de9473248989bbcb92cb63431d1</title>
<path fill="none" stroke="darkgreen" d="M1628.29,-1600C1628.29,-1600 1306,-1600 1306,-1600 1306,-1600 1306,-1339.51 1306,-1339.51"/>
<polygon fill="darkgreen" stroke="darkgreen" points="1628.29,-1603.5 1638.29,-1600 1628.29,-1596.5 1628.29,-1603.5"/>
<polygon fill="darkgreen" stroke="darkgreen" points="1309.5,-1339.51 1306,-1329.51 1302.5,-1339.51 1309.5,-1339.51"/>
</g>
<!-- 79907f99204844d19ad8f9f91dce02a7 -->
<g id="node5" class="node">
<title>79907f99204844d19ad8f9f91dce02a7</title>
<image xlink:href="./chart/google_maps.png" width="101px" height="59.1271px" preserveAspectRatio="xMinYMin meet" x="1634.5" y="-287.064"/>
</g>
<!-- a3f4bb8b05b1450cb26218d1d1cc3918&#45;&gt;79907f99204844d19ad8f9f91dce02a7 -->
<g id="edge4" class="edge">
<title>a3f4bb8b05b1450cb26218d1d1cc3918&#45;&gt;79907f99204844d19ad8f9f91dce02a7</title>
<path fill="none" stroke="darkgreen" d="M1628.18,-1532C1628.18,-1532 1598,-1532 1598,-1532 1598,-1532 1598,-257 1598,-257 1598,-257 1623.13,-257 1623.13,-257"/>
<polygon fill="darkgreen" stroke="darkgreen" points="1628.18,-1535.5 1638.18,-1532 1628.18,-1528.5 1628.18,-1535.5"/>
<polygon fill="darkgreen" stroke="darkgreen" points="1623.13,-260.5 1633.13,-257 1623.13,-253.5 1623.13,-260.5"/>
</g>
<!-- 534c220379fa46829010587dfe011d2c -->
<g id="node6" class="node">
<title>534c220379fa46829010587dfe011d2c</title>
<image xlink:href="./chart/ipify.png" width="101px" height="121.2px" preserveAspectRatio="xMinYMin meet" x="1826.5" y="-318.1"/>
</g>
<!-- a3f4bb8b05b1450cb26218d1d1cc3918&#45;&gt;534c220379fa46829010587dfe011d2c -->
<g id="edge5" class="edge">
<title>a3f4bb8b05b1450cb26218d1d1cc3918&#45;&gt;534c220379fa46829010587dfe011d2c</title>
<path fill="none" stroke="darkgreen" d="M1751.63,-1566C1751.63,-1566 1877,-1566 1877,-1566 1877,-1566 1877,-337.06 1877,-337.06"/>
<polygon fill="darkgreen" stroke="darkgreen" points="1751.63,-1562.5 1741.63,-1566 1751.63,-1569.5 1751.63,-1562.5"/>
<polygon fill="darkgreen" stroke="darkgreen" points="1880.5,-337.06 1877,-327.06 1873.5,-337.06 1880.5,-337.06"/>
</g>
<!-- d880d41b953546358d19e39110e72f26 -->
<g id="node7" class="node">
<title>d880d41b953546358d19e39110e72f26</title>
<image xlink:href="/Library/Frameworks/Python.framework/Versions/3.8/lib/python3.8/site-packages/resources/programming/framework/flask.png" width="101px" height="101px" preserveAspectRatio="xMinYMin meet" x="1268.5" y="-952"/>
<text text-anchor="middle" x="1319" y="-836.6" font-family="Sans-Serif" font-size="13.00" fill="#2d3436">Python + Flask</text>
</g>
<!-- 980aa345325545c0808c9ca90f6592c3&#45;&gt;d880d41b953546358d19e39110e72f26 -->
<g id="edge11" class="edge">
<title>980aa345325545c0808c9ca90f6592c3&#45;&gt;d880d41b953546358d19e39110e72f26</title>
<path fill="none" stroke="darkgreen" d="M1451.83,-1179.71C1451.83,-1179.71 1451.83,-901 1451.83,-901 1451.83,-901 1380.73,-901 1380.73,-901"/>
<polygon fill="darkgreen" stroke="darkgreen" points="1448.33,-1179.71 1451.83,-1189.71 1455.33,-1179.71 1448.33,-1179.71"/>
<polygon fill="darkgreen" stroke="darkgreen" points="1380.73,-897.5 1370.73,-901 1380.73,-904.5 1380.73,-897.5"/>
</g>
<!-- f8fa6898bf424576acf3141da59eb40d -->
<g id="node10" class="node">
<title>f8fa6898bf424576acf3141da59eb40d</title>
<image xlink:href="/Library/Frameworks/Python.framework/Versions/3.8/lib/python3.8/site-packages/resources/programming/language/nodejs.png" width="101px" height="101px" preserveAspectRatio="xMinYMin meet" x="290.5" y="-615"/>
<text text-anchor="middle" x="341" y="-499.6" font-family="Sans-Serif" font-size="13.00" fill="#2d3436">NodeJS + Express</text>
</g>
<!-- 980aa345325545c0808c9ca90f6592c3&#45;&gt;f8fa6898bf424576acf3141da59eb40d -->
<g id="edge12" class="edge">
<title>980aa345325545c0808c9ca90f6592c3&#45;&gt;f8fa6898bf424576acf3141da59eb40d</title>
<path fill="none" stroke="darkgreen" d="M1456.17,-1179.54C1456.17,-1179.54 1456.17,-699 1456.17,-699 1456.17,-699 357.83,-699 357.83,-699 357.83,-699 357.83,-644.45 357.83,-644.45"/>
<polygon fill="darkgreen" stroke="darkgreen" points="1452.67,-1179.54 1456.17,-1189.54 1459.67,-1179.54 1452.67,-1179.54"/>
<polygon fill="darkgreen" stroke="darkgreen" points="361.33,-644.45 357.83,-634.45 354.33,-644.45 361.33,-644.45"/>
</g>
<!-- f9747b9609ca4a858c5b016b904c87a3 -->
<g id="node11" class="node">
<title>f9747b9609ca4a858c5b016b904c87a3</title>
<image xlink:href="/Library/Frameworks/Python.framework/Versions/3.8/lib/python3.8/site-packages/resources/programming/framework/flask.png" width="101px" height="101px" preserveAspectRatio="xMinYMin meet" x="1460.5" y="-952"/>
<text text-anchor="middle" x="1511" y="-836.6" font-family="Sans-Serif" font-size="13.00" fill="#2d3436">Python + Flask</text>
</g>
<!-- 980aa345325545c0808c9ca90f6592c3&#45;&gt;f9747b9609ca4a858c5b016b904c87a3 -->
<g id="edge10" class="edge">
<title>980aa345325545c0808c9ca90f6592c3&#45;&gt;f9747b9609ca4a858c5b016b904c87a3</title>
<path fill="none" stroke="darkgreen" d="M1504.5,-1179.81C1504.5,-1179.81 1504.5,-981.24 1504.5,-981.24"/>
<polygon fill="darkgreen" stroke="darkgreen" points="1508,-981.24 1504.5,-971.24 1501,-981.24 1508,-981.24"/>
<polygon fill="darkgreen" stroke="darkgreen" points="1501,-1179.81 1504.5,-1189.81 1508,-1179.81 1501,-1179.81"/>
</g>
<!-- b1208d25c9c443dcbfe70863cd34d78c&#45;&gt;f8fa6898bf424576acf3141da59eb40d -->
<g id="edge9" class="edge">
<title>b1208d25c9c443dcbfe70863cd34d78c&#45;&gt;f8fa6898bf424576acf3141da59eb40d</title>
<path fill="none" stroke="darkgreen" d="M1687.5,-1179.61C1687.5,-1179.61 1687.5,-1080 1687.5,-1080 1687.5,-1080 324.17,-1080 324.17,-1080 324.17,-1080 324.17,-644.47 324.17,-644.47"/>
<polygon fill="darkgreen" stroke="darkgreen" points="1684,-1179.61 1687.5,-1189.61 1691,-1179.61 1684,-1179.61"/>
<polygon fill="darkgreen" stroke="darkgreen" points="327.67,-644.47 324.17,-634.47 320.67,-644.47 327.67,-644.47"/>
</g>
<!-- 8ad69de9473248989bbcb92cb63431d1&#45;&gt;d880d41b953546358d19e39110e72f26 -->
<g id="edge6" class="edge">
<title>8ad69de9473248989bbcb92cb63431d1&#45;&gt;d880d41b953546358d19e39110e72f26</title>
<path fill="none" stroke="darkgreen" d="M1312.5,-1179.81C1312.5,-1179.81 1312.5,-981.24 1312.5,-981.24"/>
<polygon fill="darkgreen" stroke="darkgreen" points="1316,-981.24 1312.5,-971.24 1309,-981.24 1316,-981.24"/>
<polygon fill="darkgreen" stroke="darkgreen" points="1309,-1179.81 1312.5,-1189.81 1316,-1179.81 1309,-1179.81"/>
</g>
<!-- 0fbbf9032777436b878706e92c513af4 -->
<g id="node8" class="node">
<title>0fbbf9032777436b878706e92c513af4</title>
<image xlink:href="/Library/Frameworks/Python.framework/Versions/3.8/lib/python3.8/site-packages/resources/programming/framework/flask.png" width="101px" height="101px" preserveAspectRatio="xMinYMin meet" x="1076.5" y="-952"/>
<text text-anchor="middle" x="1127" y="-836.6" font-family="Sans-Serif" font-size="13.00" fill="#2d3436">Python + Flask</text>
</g>
<!-- 8ad69de9473248989bbcb92cb63431d1&#45;&gt;0fbbf9032777436b878706e92c513af4 -->
<g id="edge7" class="edge">
<title>8ad69de9473248989bbcb92cb63431d1&#45;&gt;0fbbf9032777436b878706e92c513af4</title>
<path fill="none" stroke="darkgreen" d="M1262,-1179.71C1262,-1179.71 1262,-901 1262,-901 1262,-901 1188.78,-901 1188.78,-901"/>
<polygon fill="darkgreen" stroke="darkgreen" points="1258.5,-1179.71 1262,-1189.71 1265.5,-1179.71 1258.5,-1179.71"/>
<polygon fill="darkgreen" stroke="darkgreen" points="1188.78,-897.5 1178.78,-901 1188.78,-904.5 1188.78,-897.5"/>
</g>
<!-- 372cb9b48edf409ab31212bc34f6056b -->
<g id="node9" class="node">
<title>372cb9b48edf409ab31212bc34f6056b</title>
<image xlink:href="/Library/Frameworks/Python.framework/Versions/3.8/lib/python3.8/site-packages/resources/programming/language/nodejs.png" width="101px" height="101px" preserveAspectRatio="xMinYMin meet" x="858.5" y="-952"/>
<text text-anchor="middle" x="909" y="-836.6" font-family="Sans-Serif" font-size="13.00" fill="#2d3436">NodeJS + Express</text>
</g>
<!-- 8ad69de9473248989bbcb92cb63431d1&#45;&gt;372cb9b48edf409ab31212bc34f6056b -->
<g id="edge8" class="edge">
<title>8ad69de9473248989bbcb92cb63431d1&#45;&gt;372cb9b48edf409ab31212bc34f6056b</title>
<path fill="none" stroke="darkgreen" d="M1244.21,-1259C1244.21,-1259 909,-1259 909,-1259 909,-1259 909,-981.1 909,-981.1"/>
<polygon fill="darkgreen" stroke="darkgreen" points="1244.21,-1262.5 1254.21,-1259 1244.21,-1255.5 1244.21,-1262.5"/>
<polygon fill="darkgreen" stroke="darkgreen" points="912.5,-981.1 909,-971.1 905.5,-981.1 912.5,-981.1"/>
</g>
<!-- 28caa1a046dc4db7a31d2cd26ec15e31 -->
<g id="node15" class="node">
<title>28caa1a046dc4db7a31d2cd26ec15e31</title>
<image xlink:href="/Library/Frameworks/Python.framework/Versions/3.8/lib/python3.8/site-packages/resources/programming/framework/flask.png" width="101px" height="101px" preserveAspectRatio="xMinYMin meet" x="1442.5" y="-615"/>
<text text-anchor="middle" x="1493" y="-499.6" font-family="Sans-Serif" font-size="13.00" fill="#2d3436">Python + Flask</text>
</g>
<!-- d880d41b953546358d19e39110e72f26&#45;&gt;28caa1a046dc4db7a31d2cd26ec15e31 -->
<g id="edge16" class="edge">
<title>d880d41b953546358d19e39110e72f26&#45;&gt;28caa1a046dc4db7a31d2cd26ec15e31</title>
<path fill="none" stroke="darkgreen" d="M1360.5,-821.69C1360.5,-821.69 1360.5,-564 1360.5,-564 1360.5,-564 1431.02,-564 1431.02,-564"/>
<polygon fill="darkgreen" stroke="darkgreen" points="1357,-821.69 1360.5,-831.69 1364,-821.69 1357,-821.69"/>
<polygon fill="darkgreen" stroke="darkgreen" points="1431.02,-567.5 1441.02,-564 1431.02,-560.5 1431.02,-567.5"/>
</g>
<!-- 6f55a22e20c244aa8ae1557824bde6e2 -->
<g id="node16" class="node">
<title>6f55a22e20c244aa8ae1557824bde6e2</title>
<image xlink:href="/Library/Frameworks/Python.framework/Versions/3.8/lib/python3.8/site-packages/resources/programming/language/nodejs.png" width="101px" height="101px" preserveAspectRatio="xMinYMin meet" x="1250.5" y="-615"/>
<text text-anchor="middle" x="1301" y="-499.6" font-family="Sans-Serif" font-size="13.00" fill="#2d3436">NodeJS + Express</text>
</g>
<!-- 0fbbf9032777436b878706e92c513af4&#45;&gt;6f55a22e20c244aa8ae1557824bde6e2 -->
<g id="edge17" class="edge">
<title>0fbbf9032777436b878706e92c513af4&#45;&gt;6f55a22e20c244aa8ae1557824bde6e2</title>
<path fill="none" stroke="darkgreen" d="M1168.5,-821.69C1168.5,-821.69 1168.5,-564 1168.5,-564 1168.5,-564 1239.02,-564 1239.02,-564"/>
<polygon fill="darkgreen" stroke="darkgreen" points="1165,-821.69 1168.5,-831.69 1172,-821.69 1165,-821.69"/>
<polygon fill="darkgreen" stroke="darkgreen" points="1239.02,-567.5 1249.02,-564 1239.02,-560.5 1239.02,-567.5"/>
</g>
<!-- 0dd0bf1f460441f88545696c37b4a41b -->
<g id="node17" class="node">
<title>0dd0bf1f460441f88545696c37b4a41b</title>
<image xlink:href="/Library/Frameworks/Python.framework/Versions/3.8/lib/python3.8/site-packages/resources/programming/language/nodejs.png" width="101px" height="101px" preserveAspectRatio="xMinYMin meet" x="98.5" y="-615"/>
<text text-anchor="middle" x="149" y="-499.6" font-family="Sans-Serif" font-size="13.00" fill="#2d3436">NodeJS + Express</text>
</g>
<!-- 0fbbf9032777436b878706e92c513af4&#45;&gt;0dd0bf1f460441f88545696c37b4a41b -->
<g id="edge18" class="edge">
<title>0fbbf9032777436b878706e92c513af4&#45;&gt;0dd0bf1f460441f88545696c37b4a41b</title>
<path fill="none" stroke="darkgreen" d="M1118,-821.84C1118,-821.84 1118,-766 1118,-766 1118,-766 149,-766 149,-766 149,-766 149,-644.51 149,-644.51"/>
<polygon fill="darkgreen" stroke="darkgreen" points="1114.5,-821.84 1118,-831.84 1121.5,-821.84 1114.5,-821.84"/>
<polygon fill="darkgreen" stroke="darkgreen" points="152.5,-644.51 149,-634.51 145.5,-644.51 152.5,-644.51"/>
</g>
<!-- 9bd7d34e9bd94d79900111fd8e251884 -->
<g id="node12" class="node">
<title>9bd7d34e9bd94d79900111fd8e251884</title>
<image xlink:href="/Library/Frameworks/Python.framework/Versions/3.8/lib/python3.8/site-packages/resources/programming/language/nodejs.png" width="101px" height="101px" preserveAspectRatio="xMinYMin meet" x="674.5" y="-615"/>
<text text-anchor="middle" x="725" y="-499.6" font-family="Sans-Serif" font-size="13.00" fill="#2d3436">NodeJS + Express</text>
</g>
<!-- 372cb9b48edf409ab31212bc34f6056b&#45;&gt;9bd7d34e9bd94d79900111fd8e251884 -->
<g id="edge13" class="edge">
<title>372cb9b48edf409ab31212bc34f6056b&#45;&gt;9bd7d34e9bd94d79900111fd8e251884</title>
<path fill="none" stroke="darkgreen" d="M862.5,-821.69C862.5,-821.69 862.5,-564 862.5,-564 862.5,-564 786.93,-564 786.93,-564"/>
<polygon fill="darkgreen" stroke="darkgreen" points="859,-821.69 862.5,-831.69 866,-821.69 859,-821.69"/>
<polygon fill="darkgreen" stroke="darkgreen" points="786.93,-560.5 776.93,-564 786.93,-567.5 786.93,-560.5"/>
</g>
<!-- ecbc0e7bf91f4363b6640707e2395753 -->
<g id="node13" class="node">
<title>ecbc0e7bf91f4363b6640707e2395753</title>
<image xlink:href="/Library/Frameworks/Python.framework/Versions/3.8/lib/python3.8/site-packages/resources/programming/language/nodejs.png" width="101px" height="101px" preserveAspectRatio="xMinYMin meet" x="1058.5" y="-615"/>
<text text-anchor="middle" x="1109" y="-499.6" font-family="Sans-Serif" font-size="13.00" fill="#2d3436">NodeJS + Express</text>
</g>
<!-- 372cb9b48edf409ab31212bc34f6056b&#45;&gt;ecbc0e7bf91f4363b6640707e2395753 -->
<g id="edge14" class="edge">
<title>372cb9b48edf409ab31212bc34f6056b&#45;&gt;ecbc0e7bf91f4363b6640707e2395753</title>
<path fill="none" stroke="darkgreen" d="M970.66,-901C970.66,-901 1067.5,-901 1067.5,-901 1067.5,-901 1067.5,-644.11 1067.5,-644.11"/>
<polygon fill="darkgreen" stroke="darkgreen" points="970.66,-897.5 960.66,-901 970.66,-904.5 970.66,-897.5"/>
<polygon fill="darkgreen" stroke="darkgreen" points="1071,-644.11 1067.5,-634.11 1064,-644.11 1071,-644.11"/>
</g>
<!-- 3e04d4e6601644bf8d514f5a5420bc36 -->
<g id="node14" class="node">
<title>3e04d4e6601644bf8d514f5a5420bc36</title>
<image xlink:href="/Library/Frameworks/Python.framework/Versions/3.8/lib/python3.8/site-packages/resources/programming/framework/flask.png" width="101px" height="101px" preserveAspectRatio="xMinYMin meet" x="866.5" y="-615"/>
<text text-anchor="middle" x="917" y="-499.6" font-family="Sans-Serif" font-size="13.00" fill="#2d3436">Python + Flask</text>
</g>
<!-- 372cb9b48edf409ab31212bc34f6056b&#45;&gt;3e04d4e6601644bf8d514f5a5420bc36 -->
<g id="edge15" class="edge">
<title>372cb9b48edf409ab31212bc34f6056b&#45;&gt;3e04d4e6601644bf8d514f5a5420bc36</title>
<path fill="none" stroke="darkgreen" d="M913,-821.79C913,-821.79 913,-644.4 913,-644.4"/>
<polygon fill="darkgreen" stroke="darkgreen" points="916.5,-644.4 913,-634.4 909.5,-644.4 916.5,-644.4"/>
<polygon fill="darkgreen" stroke="darkgreen" points="909.5,-821.79 913,-831.79 916.5,-821.79 909.5,-821.79"/>
</g>
<!-- 79e1a95cb67f4e96b96e34941062d4ec -->
<g id="node27" class="node">
<title>79e1a95cb67f4e96b96e34941062d4ec</title>
<image xlink:href="/Library/Frameworks/Python.framework/Versions/3.8/lib/python3.8/site-packages/resources/onprem/database/mongodb.png" width="101px" height="101px" preserveAspectRatio="xMinYMin meet" x="98.5" y="-308"/>
<text text-anchor="middle" x="149" y="-192.6" font-family="Sans-Serif" font-size="13.00" fill="#2d3436">(MongoDB)</text>
</g>
<!-- f8fa6898bf424576acf3141da59eb40d&#45;&gt;79e1a95cb67f4e96b96e34941062d4ec -->
<g id="edge28" class="edge">
<title>f8fa6898bf424576acf3141da59eb40d&#45;&gt;79e1a95cb67f4e96b96e34941062d4ec</title>
<path fill="none" stroke="darkgreen" d="M324.17,-484.6C324.17,-484.6 324.17,-453 324.17,-453 324.17,-453 165.83,-453 165.83,-453 165.83,-453 165.83,-337.39 165.83,-337.39"/>
<polygon fill="darkgreen" stroke="darkgreen" points="320.67,-484.6 324.17,-494.6 327.67,-484.6 320.67,-484.6"/>
<polygon fill="darkgreen" stroke="darkgreen" points="169.33,-337.39 165.83,-327.39 162.33,-337.39 169.33,-337.39"/>
</g>
<!-- 1925faaa5f084156b4e355600a1f462d -->
<g id="node18" class="node">
<title>1925faaa5f084156b4e355600a1f462d</title>
<image xlink:href="/Library/Frameworks/Python.framework/Versions/3.8/lib/python3.8/site-packages/resources/programming/framework/flask.png" width="101px" height="101px" preserveAspectRatio="xMinYMin meet" x="1634.5" y="-615"/>
<text text-anchor="middle" x="1685" y="-499.6" font-family="Sans-Serif" font-size="13.00" fill="#2d3436">Python + Flask</text>
</g>
<!-- f9747b9609ca4a858c5b016b904c87a3&#45;&gt;1925faaa5f084156b4e355600a1f462d -->
<g id="edge19" class="edge">
<title>f9747b9609ca4a858c5b016b904c87a3&#45;&gt;1925faaa5f084156b4e355600a1f462d</title>
<path fill="none" stroke="darkgreen" d="M1552.5,-821.69C1552.5,-821.69 1552.5,-564 1552.5,-564 1552.5,-564 1623.02,-564 1623.02,-564"/>
<polygon fill="darkgreen" stroke="darkgreen" points="1549,-821.69 1552.5,-831.69 1556,-821.69 1549,-821.69"/>
<polygon fill="darkgreen" stroke="darkgreen" points="1623.02,-567.5 1633.02,-564 1623.02,-560.5 1623.02,-567.5"/>
</g>
<!-- 92c0f5937a3140a4876f1396f38408e1 -->
<g id="node22" class="node">
<title>92c0f5937a3140a4876f1396f38408e1</title>
<image xlink:href="./chart/weather_api.png" width="101px" height="47.1451px" preserveAspectRatio="xMinYMin meet" x="674.5" y="-281.073"/>
</g>
<!-- 9bd7d34e9bd94d79900111fd8e251884&#45;&gt;92c0f5937a3140a4876f1396f38408e1 -->
<g id="edge23" class="edge">
<title>9bd7d34e9bd94d79900111fd8e251884&#45;&gt;92c0f5937a3140a4876f1396f38408e1</title>
<path fill="none" stroke="darkgreen" d="M725,-484.85C725,-484.85 725,-337.49 725,-337.49"/>
<polygon fill="darkgreen" stroke="darkgreen" points="728.5,-337.49 725,-327.49 721.5,-337.49 728.5,-337.49"/>
<polygon fill="darkgreen" stroke="darkgreen" points="721.5,-484.85 725,-494.85 728.5,-484.85 721.5,-484.85"/>
</g>
<!-- eb1fc93a86544e139e40988b229353e6 -->
<g id="node20" class="node">
<title>eb1fc93a86544e139e40988b229353e6</title>
<image xlink:href="./chart/TomTom.png" width="101px" height="19.4109px" preserveAspectRatio="xMinYMin meet" x="482.5" y="-267.205"/>
</g>
<!-- ecbc0e7bf91f4363b6640707e2395753&#45;&gt;eb1fc93a86544e139e40988b229353e6 -->
<g id="edge21" class="edge">
<title>ecbc0e7bf91f4363b6640707e2395753&#45;&gt;eb1fc93a86544e139e40988b229353e6</title>
<path fill="none" stroke="darkgreen" d="M1092.17,-484.77C1092.17,-484.77 1092.17,-411 1092.17,-411 1092.17,-411 558.25,-411 558.25,-411 558.25,-411 558.25,-337.23 558.25,-337.23"/>
<polygon fill="darkgreen" stroke="darkgreen" points="1088.67,-484.77 1092.17,-494.77 1095.67,-484.77 1088.67,-484.77"/>
<polygon fill="darkgreen" stroke="darkgreen" points="561.75,-337.23 558.25,-327.23 554.75,-337.23 561.75,-337.23"/>
</g>
<!-- 0b0aa0e5d4f440a58ee523ca7138afb3 -->
<g id="node19" class="node">
<title>0b0aa0e5d4f440a58ee523ca7138afb3</title>
<image xlink:href="./chart/owm.png" width="101px" height="101px" preserveAspectRatio="xMinYMin meet" x="866.5" y="-308"/>
</g>
<!-- 3e04d4e6601644bf8d514f5a5420bc36&#45;&gt;0b0aa0e5d4f440a58ee523ca7138afb3 -->
<g id="edge20" class="edge">
<title>3e04d4e6601644bf8d514f5a5420bc36&#45;&gt;0b0aa0e5d4f440a58ee523ca7138afb3</title>
<path fill="none" stroke="darkgreen" d="M917,-484.85C917,-484.85 917,-337.49 917,-337.49"/>
<polygon fill="darkgreen" stroke="darkgreen" points="920.5,-337.49 917,-327.49 913.5,-337.49 920.5,-337.49"/>
<polygon fill="darkgreen" stroke="darkgreen" points="913.5,-484.85 917,-494.85 920.5,-484.85 913.5,-484.85"/>
</g>
<!-- 564823784cc6435092bdb7073f7af884 -->
<g id="node23" class="node">
<title>564823784cc6435092bdb7073f7af884</title>
<image xlink:href="./chart/osm.png" width="101px" height="101px" preserveAspectRatio="xMinYMin meet" x="1250.5" y="-308"/>
</g>
<!-- 28caa1a046dc4db7a31d2cd26ec15e31&#45;&gt;564823784cc6435092bdb7073f7af884 -->
<g id="edge24" class="edge">
<title>28caa1a046dc4db7a31d2cd26ec15e31&#45;&gt;564823784cc6435092bdb7073f7af884</title>
<path fill="none" stroke="darkgreen" d="M1476.17,-484.54C1476.17,-484.54 1476.17,-368 1476.17,-368 1476.17,-368 1317.83,-368 1317.83,-368 1317.83,-368 1317.83,-337.42 1317.83,-337.42"/>
<polygon fill="darkgreen" stroke="darkgreen" points="1472.67,-484.54 1476.17,-494.54 1479.67,-484.54 1472.67,-484.54"/>
<polygon fill="darkgreen" stroke="darkgreen" points="1321.33,-337.42 1317.83,-327.42 1314.33,-337.42 1321.33,-337.42"/>
</g>
<!-- f0177873787d4bd1b075f913c68a1d0b -->
<g id="node26" class="node">
<title>f0177873787d4bd1b075f913c68a1d0b</title>
<image xlink:href="/Library/Frameworks/Python.framework/Versions/3.8/lib/python3.8/site-packages/resources/onprem/database/mongodb.png" width="101px" height="101px" preserveAspectRatio="xMinYMin meet" x="1058.5" y="-308"/>
<text text-anchor="middle" x="1109" y="-192.6" font-family="Sans-Serif" font-size="13.00" fill="#2d3436">(MongoDB)</text>
</g>
<!-- 6f55a22e20c244aa8ae1557824bde6e2&#45;&gt;f0177873787d4bd1b075f913c68a1d0b -->
<g id="edge27" class="edge">
<title>6f55a22e20c244aa8ae1557824bde6e2&#45;&gt;f0177873787d4bd1b075f913c68a1d0b</title>
<path fill="none" stroke="darkgreen" d="M1284.17,-484.63C1284.17,-484.63 1284.17,-389 1284.17,-389 1284.17,-389 1125.83,-389 1125.83,-389 1125.83,-389 1125.83,-337.46 1125.83,-337.46"/>
<polygon fill="darkgreen" stroke="darkgreen" points="1280.67,-484.63 1284.17,-494.63 1287.67,-484.63 1280.67,-484.63"/>
<polygon fill="darkgreen" stroke="darkgreen" points="1129.33,-337.46 1125.83,-327.46 1122.33,-337.46 1129.33,-337.46"/>
</g>
<!-- 0dd0bf1f460441f88545696c37b4a41b&#45;&gt;eb1fc93a86544e139e40988b229353e6 -->
<g id="edge26" class="edge">
<title>0dd0bf1f460441f88545696c37b4a41b&#45;&gt;eb1fc93a86544e139e40988b229353e6</title>
<path fill="none" stroke="darkgreen" d="M132.17,-484.86C132.17,-484.86 132.17,-474 132.17,-474 132.17,-474 507.75,-474 507.75,-474 507.75,-474 507.75,-337.22 507.75,-337.22"/>
<polygon fill="darkgreen" stroke="darkgreen" points="128.67,-484.86 132.17,-494.86 135.67,-484.86 128.67,-484.86"/>
<polygon fill="darkgreen" stroke="darkgreen" points="511.25,-337.22 507.75,-327.22 504.25,-337.22 511.25,-337.22"/>
</g>
<!-- ec895deeca234a7e973f5318c22f4f23 -->
<g id="node21" class="node">
<title>ec895deeca234a7e973f5318c22f4f23</title>
<image xlink:href="./chart/eva.png" width="101px" height="38.784px" preserveAspectRatio="xMinYMin meet" x="1442.5" y="-276.892"/>
</g>
<!-- 1925faaa5f084156b4e355600a1f462d&#45;&gt;ec895deeca234a7e973f5318c22f4f23 -->
<g id="edge22" class="edge">
<title>1925faaa5f084156b4e355600a1f462d&#45;&gt;ec895deeca234a7e973f5318c22f4f23</title>
<path fill="none" stroke="darkgreen" d="M1685,-484.76C1685,-484.76 1685,-347 1685,-347 1685,-347 1509.83,-347 1509.83,-347 1509.83,-347 1509.83,-337.3 1509.83,-337.3"/>
<polygon fill="darkgreen" stroke="darkgreen" points="1681.5,-484.76 1685,-494.76 1688.5,-484.76 1681.5,-484.76"/>
<polygon fill="darkgreen" stroke="darkgreen" points="1513.33,-337.3 1509.83,-327.3 1506.33,-337.3 1513.33,-337.3"/>
</g>
<!-- ebc965bde1e144b085dcaa475202d8f2 -->
<g id="node24" class="node">
<title>ebc965bde1e144b085dcaa475202d8f2</title>
<image xlink:href="/Library/Frameworks/Python.framework/Versions/3.8/lib/python3.8/site-packages/resources/programming/framework/flask.png" width="101px" height="101px" preserveAspectRatio="xMinYMin meet" x="482.5" y="-615"/>
<text text-anchor="middle" x="533" y="-499.6" font-family="Sans-Serif" font-size="13.00" fill="#2d3436">Python + Flask</text>
</g>
<!-- 0ef879ea43c644b688876735a15de7a7 -->
<g id="node25" class="node">
<title>0ef879ea43c644b688876735a15de7a7</title>
<image xlink:href="./chart/ip-api.png" width="101px" height="26.1852px" preserveAspectRatio="xMinYMin meet" x="290.5" y="-270.593"/>
</g>
<!-- ebc965bde1e144b085dcaa475202d8f2&#45;&gt;0ef879ea43c644b688876735a15de7a7 -->
<g id="edge25" class="edge">
<title>ebc965bde1e144b085dcaa475202d8f2&#45;&gt;0ef879ea43c644b688876735a15de7a7</title>
<path fill="none" stroke="darkgreen" d="M533,-484.8C533,-484.8 533,-432 533,-432 533,-432 357.83,-432 357.83,-432 357.83,-432 357.83,-337.48 357.83,-337.48"/>
<polygon fill="darkgreen" stroke="darkgreen" points="529.5,-484.8 533,-494.8 536.5,-484.8 529.5,-484.8"/>
<polygon fill="darkgreen" stroke="darkgreen" points="361.33,-337.48 357.83,-327.48 354.33,-337.48 361.33,-337.48"/>
</g>
<!-- 813d54f4c1ea49f6bfbb738b6697943a -->
<g id="node28" class="node">
<title>813d54f4c1ea49f6bfbb738b6697943a</title>
<image xlink:href="/Library/Frameworks/Python.framework/Versions/3.8/lib/python3.8/site-packages/resources/onprem/network/nginx.png" width="101px" height="101px" preserveAspectRatio="xMinYMin meet" x="743.5" y="-1617"/>
<text text-anchor="middle" x="794" y="-1501.6" font-family="Sans-Serif" font-size="13.00" fill="#2d3436">nginx</text>
</g>
<!-- 03f355d57a294353b8601561fbddfb3c -->
<g id="node29" class="node">
<title>03f355d57a294353b8601561fbddfb3c</title>
<image xlink:href="/Library/Frameworks/Python.framework/Versions/3.8/lib/python3.8/site-packages/resources/aws/network/api-gateway.png" width="101px" height="101px" preserveAspectRatio="xMinYMin meet" x="634.5" y="-952"/>
<text text-anchor="middle" x="685" y="-836.6" font-family="Sans-Serif" font-size="13.00" fill="#2d3436">API Gateway</text>
</g>
<!-- 164e31bcc1d74887918b038b6e6be47f -->
<g id="node30" class="node">
<title>164e31bcc1d74887918b038b6e6be47f</title>
<image xlink:href="/Library/Frameworks/Python.framework/Versions/3.8/lib/python3.8/site-packages/resources/aws/compute/lambda.png" width="101px" height="101px" preserveAspectRatio="xMinYMin meet" x="490.5" y="-952"/>
<text text-anchor="middle" x="541" y="-836.6" font-family="Sans-Serif" font-size="13.00" fill="#2d3436">Lambda function</text>
</g>
</g>
</svg>
